<?xml version="1.0" encoding="utf-8"?>
<!-- Generator: Adobe Illustrator 17.0.0, SVG Export Plug-In . SVG Version: 6.00 Build 0)  -->
<!DOCTYPE svg PUBLIC "-//W3C//DTD SVG 1.1//EN" "http://www.w3.org/Graphics/SVG/1.1/DTD/svg11.dtd">
<svg version="1.1" id="Layer_1" xmlns="http://www.w3.org/2000/svg" xmlns:xlink="http://www.w3.org/1999/xlink" x="0px" y="0px"
	 width="260px" height="30px" viewBox="0 0 260 30" enable-background="new 0 0 260 30" xml:space="preserve">
<path fill-rule="evenodd" clip-rule="evenodd" fill="#F0CA42" d="M130.279,27.354c56.557,0,109.586-2.007,117.362-1.139
	c3.298,0.368,6.687,0.635,9.032,0.222c1.45-0.254,0.206-0.892-1.966-1.463c-4.234-1.117,5.786-6.331,5.786-11.296
	s-10.021-10.18-5.786-11.296c2.171-0.57,3.415-1.21,1.966-1.463c-2.344-0.414-5.734-0.147-9.032,0.221
	C239.864,2.007,186.835,0,130.279,0C73.716,0,20.692,2.007,12.912,1.139C9.619,0.771,6.23,0.504,3.875,0.918
	C2.43,1.171,3.678,1.81,5.844,2.381c4.24,1.116-5.784,6.331-5.784,11.296s10.024,10.179,5.784,11.296
	c-2.165,0.57-3.414,1.209-1.969,1.463c2.355,0.413,5.744,0.146,9.038-0.222C20.692,25.346,73.716,27.354,130.279,27.354z"/>
</svg>